<svg xmlns="http://www.w3.org/2000/svg" enable-background="new 0 0 512 491.855" viewBox="0 0 512 491.855" id="delivery-address"><polygon fill="#d84200" points="175.481 241.293 42.629 241.293 0 155.001 132.852 155.001"></polygon><polygon fill="#c63502" points="175.297 241.411 153.982 198.266 42.445 241.477"></polygon><path fill="#33b1ff" d="M243.816,0c-66.043,0-119.581,53.538-119.581,119.581c0,99.6,119.581,190.422,119.581,190.422
		s119.581-96.27,119.581-190.422C363.397,53.538,309.859,0,243.816,0z"></path><path fill="#00cfff" d="M269.347,2.741c-53.774,11.696-94.05,59.561-94.05,116.84c0,69.57,58.336,134.847,93.517,167.891
		c35.055-33.98,94.583-101.46,94.583-167.891C363.397,62.302,323.121,14.438,269.347,2.741z"></path><rect width="308.975" height="250.242" x="160.396" y="241.293" fill="#ff6700"></rect><rect width="308.975" height="250.242" x="42.629" y="241.293" fill="#ff9100"></rect><polygon fill="#ff791f" points="351.816 241.855 42.816 241.855 42.445 491.654 130.896 491.855 163.411 363.426 308.791 339.392"></polygon><polygon fill="#d84200" points="352.16 241.293 469.371 241.293 512 155.001 394.789 155.001"></polygon><polygon fill="#e84d00" points="0 339.273 308.975 339.273 351.604 241.359 42.629 241.359"></polygon><circle cx="243.797" cy="118" r="46.22" fill="#fff"></circle></svg>